<?xml version="1.0" encoding="UTF-8" standalone="no"?>
<svg
   width="869.42999mm"
   height="617.8299mm"
   viewBox="0 0 867.29 615.10988"
   version="1.1"
   id="svg44"
   xmlns="http://www.w3.org/2000/svg"
   xmlns:svg="http://www.w3.org/2000/svg">
  <defs
     id="defs48" />
  <g
     id="Autres"
     class="changecolor">
    <path
       d="M 200.96602,249.86911 5.9007839,249.50523 74.9936,176.86045 l 30.72025,0.0611 -0.0931,55.69863 94.29069,-0.33112 -0.15748,-55.17551 51.9988,-0.0818 -0.23047,43.29774 16.62386,-0.0845 -1.25177,88.40887 529.38299,-2.26938 -0.11038,21.97497 -579.14651,0.47977 z"
       id="path2" />
    <path
       d="m 220.76042,377.00972 33.50628,0.15768 -0.4463,92.6294 -43.22862,0.0369 z m -3.34822,-47.46278 36.68808,-0.17387 0.25242,47.60303 -33.60593,-0.10044 z"
       id="path4" />
    <path
       d="m 251.84328,176.99121 38.85182,0.2381 -0.60318,42.43195 -38.40852,0.53222 z"
       id="path6" />
  </g>
  <g
     id="Tours"
     class="changeColor"
     style="fill:#000000;stroke:none">
    <path
       id="path590"
       style="stroke-width:0.9726;stroke-linecap:square;paint-order:markers stroke fill"
       d="M 270.63322,130.47864 A 33.973122,33.973122 0 0 1 236.6601,164.45176 33.973122,33.973122 0 0 1 202.68697,130.47864 33.973122,33.973122 0 0 1 236.6601,96.505516 33.973122,33.973122 0 0 1 270.63322,130.47864 Z" />
    <path
       id="path1271"
       style="stroke-width:0.9726;stroke-linecap:square;paint-order:markers stroke fill"
       d="m 868.78194,318.70521 a 34.231827,34.231827 0 0 1 -34.23183,34.23183 34.231827,34.231827 0 0 1 -34.23183,-34.23183 34.231827,34.231827 0 0 1 34.23183,-34.23182 34.231827,34.231827 0 0 1 34.23183,34.23182 z" />
  </g>
  <g
     id="SAN."
     class="changeColor">
    <path
       d="m 105.73314,232.34519 0.0564,-55.42476 93.72306,0.0515 0.23196,55.08123 z"
       id="path14" />
  </g>
  <g
     id="e070">
    <path
       d="m 267.93042,220.26498 22.43882,-0.41443 0.55543,-42.63789 40.2879,-0.0393 -0.086,130.91679 -64.00262,0.25217 z"
       id="path17" />
  </g>
  <g
     id="e001"
     class="changeColor">
    <path
       d="m 331.43366,177.07178 119.87758,-0.0111 0.0392,130.80775 -119.96028,0.33003 z"
       id="path20" />
  </g>
  <g
     id="e002"
     class="changeColor">
    <path
       d="m 451.44091,177.12708 117.40877,-0.17805 0.48789,129.89591 -117.79788,0.7478 z"
       id="path23" />
  </g>
  <g
     id="e003"
     class="changeColor">
    <path
       d="m 569.09,177.04468 123.01478,0.25416 0.0648,129.27832 -122.63651,0.29551 z"
       id="path26" />
  </g>
  <g
     id="e004"
     class="changeColor">
    <path
       d="m 692.3,177.18234 127.69964,0.0189 -0.0193,99.15921 -23.60646,29.59767 -103.90467,0.69396 z"
       id="path29" />
  </g>
  <g
     id="e005"
     class="changeColor">
    <path
       d="m 695.82817,328.7921 100.45375,-0.0717 23.65283,31.97878 -0.0909,109.44822 -124.18719,-0.0611 z"
       id="path32" />
  </g>
  <g
     id="e006"
     class="changeColor">
    <path
       d="m 576.00191,329.17425 119.47749,-0.12546 -0.0767,141.06159 -119.41738,-0.055 z"
       id="path35" />
  </g>
  <g
     id="e007"
     class="changeColor">
    <path
       d="m 394.68052,329.23352 181.29715,-0.0597 -0.0527,140.89553 -181.49782,-0.0781 z"
       id="path38" />
  </g>
  <g
     id="e008"
     class="changeColor">
    <path
       d="m 254.06582,469.79721 0.25213,-140.4483 140.15065,-0.0797 -0.37,140.73793 z"
       id="path41" />
  </g>
</svg>
